PathFileType	4	(X/Y/Z)	OpenSim_Sub09_EMGStiffKnee_Accel.trc
DataRate	CameraRate	NumFrames	NumMarkers	Units	OrigDataRate	OrigDataStartFrame	OrigNumFrames
100	100	31	8	m	100	5689	7584
Frame#	Time	torso_imu_offset_imu	pelvis_imu_offset_imu	tibia_r_imu_offset_imu	femur_r_imu_offset_imu	tibia_l_imu_offset_imu	femur_l_imu_offset_imu	toes_r_imu_offset_imu	toes_l_imu_offset_imu
				X1	Y1	Z1	X2	Y2	Z2	X3	Y3	Z3	X4	Y4	Z4	X5	Y5	Z5	X6	Y6	Z6	X7	Y7	Z7	X8		Y8	Z8	

5689	56.88000000	7.93389365	1.96678169	7.14518883	8.66079734	-3.00609859	3.24104009	11.03172493	3.13804463	3.01221801	7.42357188	-2.70665888	3.71371907	9.85522625	-2.47339282	-0.21332797	9.81428055	-1.26943048	-1.93408918	8.64350457	-2.10743679	11.38023765	5.28269003	2.51634691	10.76038231
5690	56.89000000	8.05376666	1.98398928	7.13445199	8.82107119	-3.01433271	3.22229498	11.10419269	3.09554837	2.69111343	7.53721227	-2.67042348	3.58961852	9.95801720	-2.19853748	0.05338742	9.95645104	-1.46384800	-2.05298139	8.58047696	-2.05005605	11.20740506	5.50185334	2.41062758	10.59229705
5691	56.90000000	8.05308739	1.87619818	7.16637917	8.87071441	-3.07610706	3.20283387	11.00887522	2.91771597	2.24394457	7.62783050	-2.73673745	3.51589339	10.08719773	-2.00495329	0.04885587	10.01511577	-1.46787971	-2.15582834	8.64662459	-2.02835172	10.97691654	5.50570468	2.31405884	10.75421785
5692	56.91000000	8.09134817	1.85331914	7.19073224	9.02825051	-3.01918824	3.20501078	10.81823916	2.41256400	2.09424204	7.77637678	-2.92604661	3.39009466	10.23301322	-1.90515294	0.10825990	10.06904541	-1.35175518	-2.17007163	9.06723733	-2.53049778	10.72356724	5.32113716	2.34276417	10.81966998
5693	56.92000000	8.20393529	1.87199476	7.18071827	9.05068444	-3.00030491	3.19048577	10.46217472	1.64484879	1.96988523	7.91072336	-3.14137984	3.29886992	10.45738901	-2.02951965	0.12528589	10.15309081	-1.06602799	-2.17633200	9.99034956	-2.92077940	10.36965202	4.97190618	2.49285456	11.09996034
5694	56.93000000	8.31860118	1.88649346	7.20164166	9.08557309	-2.87130001	3.12493415	10.16876650	0.87923318	1.82687564	8.13752455	-3.50960897	3.33757606	10.63816604	-2.20394782	0.14296664	10.30017262	-0.71901638	-2.12854835	10.03507544	-3.11219329	9.66536831	5.19227971	2.42101974	11.03483719
5695	56.94000000	8.43288408	1.95321830	7.20847665	9.15898450	-2.70874817	3.06956462	9.79341860	0.09667835	1.71066955	8.44804192	-3.98739595	3.33461471	10.68012359	-2.04703187	0.14814629	10.39808079	-0.34103346	-2.03602860	9.25135684	-3.08257968	8.79882853	5.36805832	2.20841669	11.06952200
5696	56.95000000	8.52816897	2.02180183	7.22699572	9.22956345	-2.46875741	3.02458408	9.37076714	-0.50702256	1.81952491	8.84746665	-4.46085261	3.33110484	10.72423004	-1.92583444	0.53602370	10.50044437	0.13374508	-1.88268639	8.54855060	-3.29233697	7.90351742	5.46645431	2.04395309	10.97870591
5697	56.96000000	8.65452849	2.02957077	7.24572901	9.29413320	-2.18574699	2.92248051	9.02046810	-0.84839250	2.16184720	9.30160843	-4.96233328	3.30252460	10.50950197	-1.91320928	1.03792753	10.41123147	0.55518008	-1.65609980	8.13267230	-3.36112765	7.17207358	5.00703292	2.30441635	11.20654781
5698	56.97000000	8.70751580	1.99140591	7.27040619	9.50365566	-1.89997879	2.76331532	8.68279800	-0.97999572	2.26240226	9.74497557	-5.42764897	3.32931290	10.27477551	-1.70864268	1.19609747	10.12314672	0.84596592	-1.44031097	7.99681876	-3.22304591	6.64491042	5.14738934	2.11078228	11.14575381
5699	56.98000000	8.73413402	2.08439544	7.33555153	9.53361266	-1.69148080	2.62737830	8.39728529	-0.84222549	2.26792189	10.00089041	-5.66670289	3.67003549	10.23911746	-1.20836398	1.35276869	10.01241606	1.03859711	-1.37637178	8.09658773	-2.56121745	6.45119866	5.50990441	1.90112620	10.96879805
5700	56.99000000	8.80169449	2.10041445	7.33614245	9.62868933	-1.54314078	2.54029961	8.08344129	-0.70960808	2.12031427	10.11232857	-5.80063511	4.09623881	10.24866886	-1.27530146	1.65941049	9.96025678	1.08181064	-1.41734557	8.41081043	-2.02717716	6.20491596	5.53438102	1.76337939	10.92818472
5701	57	8.86336522	2.18010253	7.31105543	9.72504749	-1.50720500	2.31857120	7.82470085	-0.52291183	2.31025775	9.89512307	-5.71142789	4.36207343	10.35264420	-1.52125918	1.47698812	9.95319493	1.09992734	-1.59012745	8.51233611	-1.89870088	5.64991925	5.37168300	1.91436557	11.10505981
5702	57.01000000	8.89812529	2.23795384	7.31870779	9.73070218	-1.66373719	2.18086582	7.75360975	-0.53164746	2.33208343	9.52612743	-5.67542518	4.30511276	10.43312261	-1.66288684	1.17194470	9.93687202	1.04405508	-1.69773538	8.07233842	-1.98535396	5.01443792	5.14846439	1.87959587	11.20533791
5703	57.02000000	8.93109105	2.21093885	7.33236759	9.73919240	-1.83538611	2.12230280	7.86012007	-0.47370866	2.10271284	9.12733390	-5.55209360	4.22036760	10.28227991	-1.72630442	1.19927648	9.91668841	0.95752916	-1.75215839	7.25736015	-2.08313758	4.31923891	5.53404973	1.96876400	10.90488682
5704	57.03000000	8.90421309	2.17112613	7.32417329	9.73024835	-2.02602047	2.00626847	7.97738008	-0.53273401	1.96308214	8.64632026	-5.33530491	4.18815588	10.09080117	-1.61859388	1.19861472	9.68650747	0.93050999	-1.86687005	6.88700263	-2.20059244	3.78240155	5.81483624	1.96366492	10.77032319
5705	57.04000000	8.90907907	2.22712290	7.36207422	9.68248082	-2.26175505	1.94213996	8.02376976	-0.76947134	1.91881471	8.20039115	-5.09224063	4.08736844	9.95427166	-1.52535609	1.08265074	9.64854563	0.75101445	-1.89764326	7.06674824	-2.45228813	3.38322187	5.83577174	1.84226179	10.65453206
5706	57.05000000	8.85121836	2.22970833	7.28476289	9.57076226	-2.43213382	1.83728427	7.93553740	-1.13127128	1.96183571	7.70867438	-4.90786889	3.86331587	10.01170294	-1.73199731	0.50699992	9.57655998	0.51162738	-2.00441894	7.27596866	-2.39931129	3.16115182	5.50875236	2.05202100	10.88992348
5707	57.06000000	8.75669907	2.28902662	7.23542135	9.37459218	-2.58130773	1.75765390	7.77612991	-1.55711565	1.94599303	7.26113492	-4.83261766	3.69660247	10.26003048	-1.92427379	0.26958241	9.54629804	0.31029920	-2.12368289	7.43116624	-1.88921570	3.15428072	5.67643321	2.18693396	10.70495639
5708	57.07000000	8.64639462	2.32498971	7.17871457	9.18942542	-2.67748088	1.79190632	7.54508371	-1.75857658	2.36292210	6.84441814	-4.92816575	3.43257712	10.15727666	-1.80320120	0.55734928	9.62474675	0.11787815	-2.16667819	6.89154828	-1.27347626	2.51194168	5.88725994	2.00568408	10.61938659
5709	57.08000000	8.59405224	2.34608172	7.14647870	8.94251186	-2.77929535	1.78845301	7.19311128	-1.71511523	2.57491335	6.49335159	-5.12345079	3.35139073	9.87243368	-1.62764645	0.62435216	9.69889655	-0.00285773	-2.23134951	6.38866827	-0.26869530	1.93549801	6.21196063	1.83687656	10.31576435
5710	57.09000000	8.47351882	2.39494394	7.04169759	8.76703208	-2.88809879	1.64864897	6.80999110	-1.50747421	2.49077277	6.22775448	-5.20342193	3.30753320	9.99312127	-1.61294799	0.29664726	9.70844580	-0.09464937	-2.21990339	6.64331924	0.57604045	1.19351953	5.89862027	2.09764838	10.59310015
5711	57.10000000	8.43370112	2.39209217	6.86506118	8.57643756	-2.92722142	1.44594049	6.33660008	-1.36103663	2.42417890	6.06564302	-5.27653415	3.22760760	10.00321052	-1.75745148	0.64130409	9.57072098	-0.10602975	-2.20109026	6.82278496	1.28621988	0.55979362	6.07248744	2.07951841	10.49535648
5712	57.11000000	8.39648543	2.48921519	6.71839139	8.49101385	-2.84107386	1.15506598	5.98676073	-1.26133520	1.91908029	5.96958164	-5.28674655	3.10517982	9.84990699	-1.84513824	0.47560657	9.59910249	-0.03987621	-1.99446774	8.06550966	1.72249691	0.18204235	6.25522910	2.19390886	10.27729925
5713	57.12000000	8.35442199	2.51251963	6.61720426	8.35444466	-2.75905385	0.82799401	5.57364800	-1.10100519	1.75054693	5.95871043	-5.36684082	2.88043042	9.80594619	-2.14467384	0.61857596	9.55990550	0.07470187	-1.84101197	10.07870473	1.83152025	-0.47530200	6.49870143	2.06187171	10.25886220
5714	57.13000000	8.23732021	2.59276501	6.46177505	8.21752268	-2.50990883	0.42925184	4.97739740	-0.83240011	1.45273212	5.88608091	-5.29017609	2.32274985	9.74015283	-2.84360878	0.69283195	9.69744436	0.18991767	-1.57313505	7.85788016	-2.11208881	2.99777607	6.34944055	2.27264394	10.31892978
5715	57.14000000	8.31072336	2.75182608	6.24957458	8.45501059	-2.60906928	1.32179640	4.30208887	-0.33952136	0.85094939	5.63835695	-4.80139150	2.42336738	9.84427054	-3.40289850	1.00796546	9.75267342	0.19382737	-1.37439608	1.33886005	-1.04473722	-9.55481876	6.16254868	1.91776889	10.32259094
5716	57.15000000	9.15075935	2.70659860	6.39583700	9.74510560	-2.04576259	4.05814707	6.30834622	-1.32602221	-1.33895630	6.44978879	-3.94341686	3.35203035	9.87800627	-3.19035776	1.37705674	9.59353678	0.14553444	-1.34804900	-23.03597679	2.05854225	1.65022888	6.57461245	1.59291057	10.44053579
5717	57.16000000	11.36344252	2.19975889	6.70075614	10.70041595	-0.70527306	6.06198670	12.49438051	-3.58495608	6.08457983	9.59291400	-3.45171396	4.00957463	10.48094734	-1.99864945	1.31909444	10.00025268	0.25197078	-1.08427371	7.40412246	1.97074240	24.91154605	6.40840880	1.83809586	10.81555931
5718	57.17000000	12.71683039	1.53115082	7.36308049	11.74855149	0.19435576	8.08379077	24.35690951	-7.39321022	18.86761518	14.65945523	-3.53325526	4.85218658	11.72571087	-0.83802595	1.89118985	10.72050027	0.50206023	-0.85478582	28.07785515	-2.51969462	17.31956267	6.36047496	2.16662103	10.89743824
5719	57.18000000	12.89814544	1.26078565	8.06574791	13.64622471	2.17887928	9.49984704	32.04679520	-15.65705730	8.13583539	22.51326180	-3.67181305	4.93394204	12.40946561	-0.86092040	2.72752719	11.47669384	0.02703210	-0.65559118	16.98779950	2.46899473	9.70923888	6.23725903	2.40878899	10.98525343
